<svg xmlns="http://www.w3.org/2000/svg" viewBox="0 0 500 400"><title>documents_feature</title><path d="M98.04,338.246c87.462,45.692,229.269,45.694,316.729,0s87.464-119.772,0-165.464-229.268-45.692-316.731,0S10.576,292.556,98.04,338.246Z" style="fill:#f5f5f5"/><polygon points="73.622 263.324 45.188 246.907 45.187 185.932 73.622 202.349 73.622 263.324" style="fill:#e0e0e0"/><polygon points="73.622 202.349 114.242 178.896 114.243 239.872 73.622 263.324 73.622 202.349" style="fill:#ebebeb"/><polygon points="114.242 178.896 73.622 202.349 45.187 185.932 85.808 162.48 114.242 178.896" style="fill:#f5f5f5"/><polygon points="77.685 204.693 110.181 185.932 110.928 186.363 110.927 208.949 78.431 227.71 77.684 227.278 77.685 204.693" style="fill:#e0e0e0"/><polygon points="78.432 205.125 110.928 186.363 110.927 208.949 78.431 227.71 78.432 205.125" style="fill:#f5f5f5"/><path d="M91.169,201.6l5.526-3.192c.718-.414,1.3-.224,1.3.423a2.6,2.6,0,0,1-1.3,1.923l-5.526,3.19c-.718.414-1.3.226-1.3-.421A2.6,2.6,0,0,1,91.169,201.6Z" style="fill:#e0e0e0"/><polygon points="76.937 233.272 109.434 214.51 109.432 237.096 110.18 237.527 77.683 256.289 76.936 255.856 76.937 233.272" style="fill:#e0e0e0"/><polygon points="77.684 233.704 110.181 214.941 110.18 237.527 77.683 256.289 77.684 233.704" style="fill:#f5f5f5"/><path d="M90.422,230.177l5.526-3.191c.717-.414,1.3-.224,1.3.423a2.6,2.6,0,0,1-1.3,1.923l-5.527,3.19c-.717.414-1.3.225-1.3-.422A2.6,2.6,0,0,1,90.422,230.177Z" style="fill:#e0e0e0"/><polygon points="73.621 198.831 45.186 182.414 45.186 121.439 73.621 137.855 73.621 198.831" style="fill:#e0e0e0"/><polygon points="73.621 137.855 114.241 114.403 114.242 175.379 73.621 198.831 73.621 137.855" style="fill:#ebebeb"/><polygon points="114.241 114.403 73.621 137.855 45.186 121.439 85.807 97.986 114.241 114.403" style="fill:#f5f5f5"/><polygon points="77.683 140.2 110.18 121.438 110.927 121.87 110.926 144.456 78.43 163.217 77.682 162.785 77.683 140.2" style="fill:#e0e0e0"/><path d="M91.168,137.1l5.526-3.19c.718-.415,1.3-.225,1.3.422a2.6,2.6,0,0,1-1.3,1.923l-5.527,3.19c-.717.414-1.3.225-1.3-.422A2.6,2.6,0,0,1,91.168,137.1Z" style="fill:#e0e0e0"/><polygon points="76.935 168.778 109.432 150.017 109.431 172.602 110.178 173.034 77.682 191.795 76.935 191.363 76.935 168.778" style="fill:#e0e0e0"/><polygon points="77.683 169.21 110.179 150.449 110.178 173.034 77.682 191.795 77.683 169.21" style="fill:#f5f5f5"/><path d="M90.42,165.684l5.527-3.191c.717-.414,1.3-.225,1.3.423a2.6,2.6,0,0,1-1.3,1.922l-5.526,3.191c-.718.414-1.3.225-1.3-.423A2.6,2.6,0,0,1,90.42,165.684Z" style="fill:#e0e0e0"/><polygon points="77.683 140.199 110.179 121.438 110.178 144.023 77.682 162.784 77.683 140.199" style="fill:#e0e0e0"/><polygon points="126.428 132.596 108.64 122.329 108.639 142.226 126.427 152.493 126.428 132.596" style="fill:#e0e0e0"/><polygon points="89.869 165.997 89.869 137.854 96.842 133.815 97.993 135.509 118.303 123.783 118.304 149.58 89.869 165.997" style="fill:#ebebeb"/><polygon points="89.869 165.997 91.899 141.372 120.334 124.956 118.304 149.58 89.869 165.997" style="fill:#f5f5f5"/><polygon points="93.931 151.358 78.428 142.407 78.427 162.305 93.93 171.255 93.931 151.358" style="fill:#ebebeb"/><polygon points="93.931 149.58 126.427 130.818 126.426 153.404 93.93 172.165 93.931 149.58" style="fill:#f5f5f5"/><path d="M106.668,146.054l5.527-3.191c.717-.414,1.3-.225,1.3.423a2.6,2.6,0,0,1-1.3,1.922l-5.526,3.191c-.718.414-1.3.225-1.3-.423A2.6,2.6,0,0,1,106.668,146.054Z" style="fill:#e0e0e0"/><polygon points="93.931 149.58 92.848 148.956 92.848 171.54 93.932 172.165 93.931 149.58" style="fill:#e0e0e0"/><polygon points="92.848 148.956 125.345 130.194 126.427 130.818 93.931 149.58 92.848 148.956" style="fill:#ebebeb"/><polygon points="409.499 226.378 381.064 209.962 381.064 148.985 409.499 165.402 409.499 226.378" style="fill:#e0e0e0"/><polygon points="409.499 165.402 450.119 141.95 450.12 202.926 409.499 226.378 409.499 165.402" style="fill:#ebebeb"/><polygon points="450.119 141.95 409.499 165.402 381.064 148.985 421.685 125.534 450.119 141.95" style="fill:#f5f5f5"/><polygon points="413.561 167.747 446.058 148.985 446.805 149.417 446.804 172.003 414.308 190.764 413.56 190.332 413.561 167.747" style="fill:#e0e0e0"/><polygon points="414.309 168.179 446.805 149.417 446.804 172.003 414.308 190.764 414.309 168.179" style="fill:#f5f5f5"/><path d="M427.047,164.652l5.525-3.19c.718-.415,1.3-.225,1.3.422a2.6,2.6,0,0,1-1.3,1.923L427.046,167c-.718.414-1.3.225-1.3-.423A2.6,2.6,0,0,1,427.047,164.652Z" style="fill:#e0e0e0"/><polygon points="412.814 196.326 445.31 177.564 445.31 200.149 446.057 200.582 413.56 219.343 412.813 218.91 412.814 196.326" style="fill:#e0e0e0"/><polygon points="413.561 196.758 446.058 177.996 446.057 200.582 413.56 219.343 413.561 196.758" style="fill:#f5f5f5"/><path d="M426.3,193.231l5.526-3.191c.717-.414,1.3-.225,1.3.423a2.605,2.605,0,0,1-1.3,1.923l-5.527,3.19c-.718.414-1.3.225-1.3-.422A2.6,2.6,0,0,1,426.3,193.231Z" style="fill:#e0e0e0"/><path d="M138.956,290.114s.118-15.86-9.882-27.751c-8.858-10.532-13.566-17.213-10.769-20.289s8.781-3.819,16.875,4.692,8.719,32.12,7.6,37.462Z" style="fill:#7e97f2"/><path d="M138.956,290.114s.118-15.86-9.882-27.751c-8.858-10.532-13.566-17.213-10.769-20.289s8.781-3.819,16.875,4.692,8.719,32.12,7.6,37.462Z" style="opacity:0.2"/><path d="M140.68,273.063a.5.5,0,0,1-.488-.4c-3.5-16.371-12.486-25.422-17.531-29.359a.5.5,0,0,1,.615-.789c5.153,4.022,14.328,13.258,17.893,29.939a.5.5,0,0,1-.384.594A.535.535,0,0,1,140.68,273.063Z" style="fill:#fff"/><path d="M138.615,296.015l-4.062,2.345a7.358,7.358,0,0,0-5.485-4.69c-4.445-1.043-9.07-.834-12.183-4.692s.677-8.053,0-10.9-1.129-3.66-6.7-6.5-7.78-7.552-3.583-10.747,11.017-.849,15.123,1.954c3.664,2.5,7.143,3.162,11.226,3.664s10.751,2.786,9.731,12.283A74.91,74.91,0,0,1,138.615,296.015Z" style="fill:#7e97f2"/><path d="M122.969,283.52a.5.5,0,0,1-.153-.976c.367-.117,9.022-2.85,12.677.086a.5.5,0,0,1-.626.779c-3.242-2.6-11.661.06-11.745.086A.485.485,0,0,1,122.969,283.52Z" style="fill:#fff"/><path d="M139.074,295.244a.5.5,0,0,1-.5-.447c-2.227-21.059-27.595-31.05-27.851-31.149a.5.5,0,1,1,.358-.933c.262.1,26.2,10.306,28.487,31.976a.5.5,0,0,1-.444.55Z" style="fill:#fff"/><path d="M387.8,282.166c.115-.343,4.4-22.43,0-38.09-4.038-14.358-9.219-19.657-16.656-20.825s-10.666,4.188-6.716,11.444,13.454,16.9,15.79,33.115c.962,6.676,1.76,12.478,1.76,12.478Z" style="fill:#7e97f2"/><path d="M387.8,282.166c.115-.343,4.4-22.43,0-38.09-4.038-14.358-9.219-19.657-16.656-20.825s-10.666,4.188-6.716,11.444,13.454,16.9,15.79,33.115c.962,6.676,1.76,12.478,1.76,12.478Z" style="opacity:0.2"/><path d="M385.3,269.487h-.028a.5.5,0,0,1-.471-.527c1.024-17.877-4.841-33.842-15.308-41.665a.5.5,0,0,1,.6-.8c10.731,8.021,16.75,24.315,15.706,42.523A.5.5,0,0,1,385.3,269.487Z" style="fill:#fff"/><path d="M399.313,293.67c-.574-4.105,1.79-10.273,7.4-11.727s8.112-4.682,6.087-8.2-1.547-6.748,3.545-8.213,9.55-4.02,6.615-9.379c-2.127-3.887-2.6-6.405,2.621-14.072,4.328-6.357.79-10.087-4.633-9.381s-8.765,7.152-12.15,8.24-4.177-4.687-8.647-2.107-4.194,9.193-4.336,13.8-.442,5.654-4.484,5.088-7.985.1-7.908,9.873c.065,8.385,4.542,18.763,4.542,18.763Z" style="fill:#7e97f2"/><path d="M392.223,287.418l-.057,0a.5.5,0,0,1-.441-.553c2.816-25.2,24.438-46.44,30.075-50.751a.5.5,0,1,1,.607.8c-5.564,4.255-26.912,25.224-29.688,50.068A.5.5,0,0,1,392.223,287.418Z" style="fill:#fff"/><path d="M402.081,260.491a.5.5,0,0,1-.175-.969c8.068-3,17.2-1.587,17.59-1.525a.5.5,0,0,1,.414.573.508.508,0,0,1-.572.415c-.091-.016-9.269-1.434-17.082,1.475A.513.513,0,0,1,402.081,260.491Z" style="fill:#fff"/><path d="M394.9,275.626a.5.5,0,0,1-.375-.169,29.41,29.41,0,0,1-6.588-13.669.5.5,0,0,1,.989-.151,28.938,28.938,0,0,0,6.349,13.158.5.5,0,0,1-.375.831Z" style="fill:#fff"/><polygon points="138.615 141.23 138.615 296.015 297.035 204.552 297.034 63.838 179.236 131.85 175.174 120.123 138.615 141.23" style="fill:#7e97f2"/><polygon points="138.615 141.23 138.615 296.015 297.035 204.552 297.034 63.838 179.236 131.85 175.174 120.123 138.615 141.23" style="opacity:0.7000000000000001"/><polygon points="138.615 296.015 146.738 155.301 305.157 63.838 297.035 204.552 138.615 296.015" style="fill:#e0e0e0"/><polygon points="138.615 296.015 150.8 157.646 309.22 66.183 297.035 204.552 138.615 296.015" style="fill:#7e97f2"/><polygon points="138.615 296.015 150.8 157.646 309.22 66.183 297.035 204.552 138.615 296.015" style="opacity:0.7000000000000001"/><polygon points="162.988 155.301 162.988 310.086 321.408 218.623 321.407 77.91 203.609 145.921 199.547 134.194 162.988 155.301" style="fill:#7e97f2"/><polygon points="162.988 155.301 162.988 310.086 321.408 218.623 321.407 77.91 203.609 145.921 199.547 134.194 162.988 155.301" style="opacity:0.5"/><polygon points="162.988 310.086 171.111 169.373 329.53 77.909 321.408 218.623 162.988 310.086" style="fill:#e0e0e0"/><polygon points="162.988 310.086 175.173 171.718 333.593 80.254 321.408 218.623 162.988 310.086" style="fill:#7e97f2"/><polygon points="162.988 310.086 175.173 171.718 333.593 80.254 321.408 218.623 162.988 310.086" style="opacity:0.5"/><path d="M297.035,359.336c-28.434-16.417-54.815-34.265-66.858-55.209l36.558-21.107Z" style="fill:#e0e0e0"/><polygon points="191.421 171.718 191.421 326.503 349.841 235.039 349.84 94.326 232.041 162.337 227.979 150.611 191.421 171.718" style="fill:#7e97f2"/><polygon points="191.421 171.718 191.421 326.503 349.841 235.039 349.84 94.326 232.041 162.337 227.979 150.611 191.421 171.718" style="opacity:0.2"/><path d="M237.061,217.482c-.4,0-.459-.46-.459-.736V84.723a3.332,3.332,0,0,1,1.482-2.567L352.42,16.145a1.1,1.1,0,0,1,.523-.17c.4,0,.459.461.459.736V148.735a3.329,3.329,0,0,1-1.482,2.567L237.584,217.314A1.1,1.1,0,0,1,237.061,217.482Z" style="fill:#fff"/><path d="M352.877,16.486a.875.875,0,0,1,.025.225V148.735a2.859,2.859,0,0,1-1.232,2.134L237.334,216.88a.141.141,0,1,1-.232-.134V84.723a2.856,2.856,0,0,1,1.232-2.134L352.67,16.578a.873.873,0,0,1,.207-.092m.066-1.011a1.575,1.575,0,0,0-.773.236L237.834,81.723a3.829,3.829,0,0,0-1.732,3V216.746c0,.783.391,1.236.959,1.236a1.569,1.569,0,0,0,.773-.236L352.17,151.735a3.828,3.828,0,0,0,1.732-3V16.711c0-.783-.39-1.236-.959-1.236Z" style="fill:#7e97f2"/><path d="M352.877,16.486a.875.875,0,0,1,.025.225V148.735a2.859,2.859,0,0,1-1.232,2.134L237.334,216.88a.141.141,0,1,1-.232-.134V84.723a2.856,2.856,0,0,1,1.232-2.134L352.67,16.578a.873.873,0,0,1,.207-.092m.066-1.011a1.575,1.575,0,0,0-.773.236L237.834,81.723a3.829,3.829,0,0,0-1.732,3V216.746c0,.783.391,1.236.959,1.236a1.569,1.569,0,0,0,.773-.236L352.17,151.735a3.828,3.828,0,0,0,1.732-3V16.711c0-.783-.39-1.236-.959-1.236Z" style="fill:#fff;opacity:0.7000000000000001"/><polygon points="248.289 89.758 288.909 66.306 288.909 113.21 248.289 136.663 248.289 89.758" style="fill:#7e97f2"/><polygon points="248.289 89.758 288.909 66.306 288.909 113.21 248.289 136.663 248.289 89.758" style="fill:#fff;opacity:0.8"/><path d="M282.816,78.032V92.1l-1.272.711V88.5c0-2.38-1.939-3.191-4.33-1.811l-17.23,9.948c-2.391,1.38-4.33,4.429-4.33,6.81v4.311l-1.272.759V94.449Z" style="fill:#fff"/><path d="M274.981,113.9c-2.084,1.2-3.773-.06-3.773-2.821V88.5l-5.218,2.84v22.742c0,2.762-1.688,5.975-3.772,7.179l-3.774,2.178v1.493l20.311-11.726v-1.493Z" style="fill:#fff"/><path d="M297.033,63.961c0,1.3,1.164,1.674,2.6.846l39.486-22.8a5.2,5.2,0,0,0,2.6-3.845c0-1.3-1.163-1.674-2.6-.846l-39.486,22.8A5.2,5.2,0,0,0,297.033,63.961Z" style="fill:#344493"/><path d="M297.033,78.032c0,1.3,1.164,1.674,2.6.846l39.486-22.8a5.2,5.2,0,0,0,2.6-3.846c0-1.3-1.163-1.674-2.6-.845l-39.486,22.8A5.2,5.2,0,0,0,297.033,78.032Z" style="fill:#344493"/><path d="M297.033,92.1c0,1.3,1.164,1.673,2.6.845l39.486-22.8a5.2,5.2,0,0,0,2.6-3.846c0-1.3-1.163-1.673-2.6-.845l-39.486,22.8A5.2,5.2,0,0,0,297.033,92.1Z" style="fill:#344493"/><path d="M297.033,106.175c0,1.3,1.164,1.674,2.6.845l39.486-22.8a5.2,5.2,0,0,0,2.6-3.846c0-1.294-1.163-1.673-2.6-.845l-39.486,22.8A5.2,5.2,0,0,0,297.033,106.175Z" style="fill:#344493"/><path d="M248.289,148.394c0,1.295,1.164,1.673,2.6.845L339.118,98.3a5.2,5.2,0,0,0,2.6-3.846c0-1.3-1.163-1.674-2.6-.845l-88.231,50.944A5.2,5.2,0,0,0,248.289,148.394Z" style="fill:#344493"/><path d="M248.289,162.465c0,1.295,1.164,1.674,2.6.845l88.231-50.944a5.2,5.2,0,0,0,2.6-3.846c0-1.3-1.163-1.673-2.6-.845l-88.231,50.944A5.2,5.2,0,0,0,248.289,162.465Z" style="fill:#344493"/><path d="M248.289,176.536c0,1.295,1.164,1.674,2.6.845l88.231-50.943a5.2,5.2,0,0,0,2.6-3.846c0-1.3-1.163-1.674-2.6-.845l-88.231,50.944A5.2,5.2,0,0,0,248.289,176.536Z" style="fill:#344493"/><polygon points="191.422 326.503 219.855 202.206 378.274 110.743 349.841 235.039 191.422 326.503" style="fill:#7e97f2"/><polygon points="230.177 211.941 230.177 304.127 266.735 283.02 266.736 190.835 230.177 211.941" style="fill:#7e97f2"/><polygon points="230.177 211.941 230.177 304.127 266.735 283.02 266.736 190.835 230.177 211.941" style="opacity:0.2"/><path d="M297.068,358.739c-3.106-2.314-33.085-25.231-48.324-57.961-16.223-34.839-16.208-75.475-16.2-90.772v-.476l108.676-62.743c-.006,15.436.015,56.129,16.3,91.092,14.885,31.97,43.717,54.624,48.29,58.083Z" style="fill:#fff"/><path d="M340.717,147.653c0,16.078.312,56.011,16.343,90.438,14.385,30.894,41.747,53.116,47.843,57.813L297.1,358.142c-4.213-3.176-33.067-25.7-47.907-57.576-16.175-34.738-16.161-75.293-16.156-90.56v-.187l107.676-62.166m1-1.732-109.676,63.32c0,14.386-.3,56.2,16.249,91.748,16.248,34.9,48.745,58.347,48.745,58.347l109.676-63.32s-32.5-23.453-48.745-58.348c-16.553-35.549-16.249-77.361-16.249-91.747Z" style="fill:#7e97f2"/><path d="M340.717,147.653c0,16.078.312,56.011,16.343,90.438,14.385,30.894,41.747,53.116,47.843,57.813L297.1,358.142c-4.213-3.176-33.067-25.7-47.907-57.576-16.175-34.738-16.161-75.293-16.156-90.56v-.187l107.676-62.166m1-1.732-109.676,63.32c0,14.386-.3,56.2,16.249,91.748,16.248,34.9,48.745,58.347,48.745,58.347l109.676-63.32s-32.5-23.453-48.745-58.348c-16.553-35.549-16.249-77.361-16.249-91.747Z" style="fill:#fff;opacity:0.7000000000000001"/><path d="M329.314,167.152l-34.685,20.026a4.932,4.932,0,0,0-2.52,3.8c.049,1.267,1.26,1.623,2.7.795l34.685-20.027a4.907,4.907,0,0,0,2.5-3.794C331.943,166.68,330.749,166.324,329.314,167.152Z" style="fill:#344493"/><path d="M330.053,180.8l-34.686,20.026a4.611,4.611,0,0,0-2.415,3.736c.107,1.233,1.366,1.56,2.8.732l34.686-20.026a4.584,4.584,0,0,0,2.395-3.733C332.728,180.3,331.487,179.969,330.053,180.8Z" style="fill:#344493"/><path d="M331.438,194.069,296.753,214.1c-1.436.828-2.472,2.471-2.3,3.668s1.483,1.5,2.917.666L332.056,198.4c1.434-.829,2.45-2.469,2.279-3.666S332.873,193.24,331.438,194.069Z" style="fill:#344493"/><path d="M333.518,206.94l-34.686,20.025c-1.436.829-2.418,2.442-2.183,3.6s1.6,1.425,3.036.6l34.686-20.026c1.435-.828,2.4-2.437,2.16-3.6S334.952,206.111,333.518,206.94Z" style="fill:#344493"/><path d="M336.338,219.382l-34.686,20.026c-1.434.828-2.361,2.409-2.053,3.527s1.731,1.35,3.166.521L337.45,223.43c1.436-.828,2.337-2.4,2.03-3.521S337.773,218.554,336.338,219.382Z" style="fill:#344493"/><path d="M339.948,231.37,255.41,280.178c-1.434.829-2.3,2.374-1.91,3.445s1.878,1.264,3.312.436l84.539-48.808c1.434-.829,2.271-2.365,1.883-3.436S341.383,230.541,339.948,231.37Z" style="fill:#344493"/><path d="M344.453,242.819l-84.538,48.809c-1.435.828-2.222,2.331-1.747,3.352s2.029,1.175,3.464.347l84.538-48.808c1.435-.829,2.206-2.325,1.732-3.346S345.888,241.991,344.453,242.819Z" style="fill:#344493"/><path d="M349.967,253.733l-84.538,48.808c-1.435.828-2.15,2.291-1.581,3.258s2.207,1.071,3.642.243l84.537-48.809c1.436-.828,2.123-2.275,1.555-3.243S351.4,252.9,349.967,253.733Z" style="fill:#344493"/><path d="M356.475,264.046l-84.539,48.807c-1.434.829-2.078,2.252-1.423,3.17s2.359.981,3.794.153l84.538-48.809c1.434-.828,2.056-2.235,1.4-3.152S357.909,263.217,356.475,264.046Z" style="fill:#344493"/><path d="M363.852,273.855l-84.539,48.809c-1.434.828-2.015,2.217-1.285,3.09s2.494.9,3.93.073L366.5,277.02c1.435-.829,2-2.2,1.267-3.074S365.286,273.027,363.852,273.855Z" style="fill:#344493"/><path d="M372.023,283.2l-84.537,48.809c-1.435.828-1.959,2.183-1.158,3.016s2.619.829,4.055,0l84.538-48.807c1.434-.829,1.941-2.168,1.141-3S373.459,282.375,372.023,283.2Z" style="fill:#344493"/><path d="M380.961,292.127l-84.538,48.808c-1.435.828-1.9,2.152-1.033,2.946s2.744.757,4.178-.072L384.106,295c1.435-.828,1.886-2.135,1.017-2.929S382.4,291.3,380.961,292.127Z" style="fill:#344493"/><path d="M282.06,194.435l-39.882,23.026c.444,14.444,2.091,35.293,8.136,56.278L290.2,250.713C284.151,229.728,282.5,208.88,282.06,194.435Z" style="fill:#7e97f2"/><path d="M282.06,194.435l-39.882,23.026c.444,14.444,2.091,35.293,8.136,56.278L290.2,250.713C284.151,229.728,282.5,208.88,282.06,194.435Z" style="fill:#fff;opacity:0.8"/><path d="M258.444,214.261A6.609,6.609,0,0,0,256.5,209.2l-14.317,8.266c.117,3.816.323,8.09.667,12.685a9.356,9.356,0,0,0,5.417-.955C253.886,226.568,258.444,219.884,258.444,214.261Z" style="fill:#7e97f2"/><path d="M258.444,214.261A6.609,6.609,0,0,0,256.5,209.2l-14.317,8.266c.117,3.816.323,8.09.667,12.685a9.356,9.356,0,0,0,5.417-.955C253.886,226.568,258.444,219.884,258.444,214.261Z" style="fill:#fff;opacity:0.6000000000000001"/><path d="M286.814,236.915h0c-2.66-3.355-8.07-13.7-10.381-18.211a1,1,0,0,0-1.848.169,109.729,109.729,0,0,0-4.327,26.252,38.072,38.072,0,0,1-8.466-9.423.883.883,0,0,0-1.588.276c-4.361,16.793-2.174,33.308-2.174,33.308h0L290.2,250.713C288.863,246.083,287.754,241.465,286.814,236.915Z" style="fill:#7e97f2"/><path d="M286.814,236.915h0c-2.66-3.355-8.07-13.7-10.381-18.211a1,1,0,0,0-1.848.169,109.729,109.729,0,0,0-4.327,26.252,38.072,38.072,0,0,1-8.466-9.423.883.883,0,0,0-1.588.276c-4.361,16.793-2.174,33.308-2.174,33.308h0L290.2,250.713C288.863,246.083,287.754,241.465,286.814,236.915Z" style="fill:#fff;opacity:0.6000000000000001"/></svg>