<svg xmlns="http://www.w3.org/2000/svg" viewBox="0 0 512 512"><path d="M127.724 354.7a239.568 239.568 0 0 1 57.779 6.912 256.493 256.493 0 0 1 55.015 20.734v-236.1a210.344 210.344 0 0 0-53.909-25.71 195.325 195.325 0 0 0-58.885-9.123 162.866 162.866 0 0 0-41.193 5.252 398.425 398.425 0 0 0-40.639 12.994v239.965a156.055 156.055 0 0 1 38.981-11.335 263.636 263.636 0 0 1 42.851-3.589zm145.969 27.646a278.3 278.3 0 0 1 54.186-20.734 223.015 223.015 0 0 1 56.4-6.912 296.086 296.086 0 0 1 43.4 3.318q22.393 3.318 38.428 8.847v-237.2a144.385 144.385 0 0 0-39.81-14.1 216.578 216.578 0 0 0-42.022-4.146 184.86 184.86 0 0 0-57.779 9.123 215.459 215.459 0 0 0-52.8 25.71zm-15.481 64.691a289.181 289.181 0 0 0-61.65-33.451 185.724 185.724 0 0 0-68.838-12.994 133.268 133.268 0 0 0-37.046 5.253q-18.246 5.253-36.492 11.335-18.246 9.4-36.216-1.106t-17.97-32.074v-255.447a55.629 55.629 0 0 1 6.082-25.711 40.067 40.067 0 0 1 18.246-17.969 204.13 204.13 0 0 1 50.039-15.482 307.6 307.6 0 0 1 52.251-4.423 243.587 243.587 0 0 1 68.561 9.676 205.327 205.327 0 0 1 61.927 30.134 212.263 212.263 0 0 1 60.821-29.858 229.871 229.871 0 0 1 67.455-9.952 270 270 0 0 1 51.974 4.976 266.056 266.056 0 0 1 49.763 14.929 41.585 41.585 0 0 1 18.522 17.969 53.674 53.674 0 0 1 6.359 25.711v261.529q0 20.459-18.246 29.305t-36.493-2.212q-17.693-6.635-35.939-11.611a140.165 140.165 0 0 0-37.046-4.977 166.262 166.262 0 0 0-66.349 13.547 348.465 348.465 0 0 0-59.715 32.898z" fill="#06f"/></svg>