<svg xmlns="http://www.w3.org/2000/svg" viewBox="0 0 1155 200"><title>LotusDocs_Logo_v1.0</title><path d="M594.958,96.77v59.2a24,24,0,0,0,24,24h62.4a24,24,0,0,0,24-24V24.77a4.8,4.8,0,0,0-4.8-4.8h-20.8a4.8,4.8,0,0,0-4.8,4.8v44.8h-52.8A27.2,27.2,0,0,0,594.958,96.77Zm30.4,44.8v-33.6a8,8,0,0,1,8-8h33.6a8,8,0,0,1,8,8v33.6a8,8,0,0,1-8,8h-33.6A8,8,0,0,1,625.358,141.57Z" style="fill:#06f"/><path d="M781.158,69.57h-14.4a48,48,0,0,0-48,48v14.4a48,48,0,0,0,48,48h14.4a48,48,0,0,0,48-48v-14.4A48,48,0,0,0,781.158,69.57Zm-1.6,80h-11.2a19.2,19.2,0,0,1-19.2-19.2v-11.2a19.2,19.2,0,0,1,19.2-19.2h11.2a19.2,19.2,0,0,1,19.2,19.2v11.2A19.2,19.2,0,0,1,779.558,149.57Z" style="fill:#06f"/><path d="M952.957,155.65v-5a5,5,0,0,0-5-5H927.566a5,5,0,0,0-5,5.009h0a6.58,6.58,0,0,1-6.58,6.591H880.957a8,8,0,0,1-8-8V100.29a8,8,0,0,1,8-8h35.029a6.58,6.58,0,0,1,6.58,6.592h0a5,5,0,0,0,5,5.008h20.391a5,5,0,0,0,5-5v-5a24,24,0,0,0-24-24h-62.4a24,24,0,0,0-24,24v61.76a24,24,0,0,0,24,24h62.4A24,24,0,0,0,952.957,155.65Z" style="fill:#06f"/><path d="M966.357,96.711v5.756a27.175,27.175,0,0,0,11.311,22.044h-.178a27.1,27.1,0,0,0,9.72,4.523l52.978,12.715a8.047,8.047,0,0,1,6.169,7.826v.007a8.048,8.048,0,0,1-8.048,8.048h-35.152a6.4,6.4,0,0,1-6.4-6.4,4.8,4.8,0,0,0-4.8-4.8h-20.8a4.8,4.8,0,0,0-4.8,4.8v4.8a24,24,0,0,0,24,24h59.2a27.2,27.2,0,0,0,27.2-27.2v-5.756a27.17,27.17,0,0,0-11.311-22.044h.179a27.106,27.106,0,0,0-9.72-4.524l-52.978-12.714a8.05,8.05,0,0,1-6.17-7.826v-.007a8.048,8.048,0,0,1,8.048-8.048h35.152a6.4,6.4,0,0,1,6.4,6.4,4.8,4.8,0,0,0,4.8,4.8h20.8a4.8,4.8,0,0,0,4.8-4.8v-4.8a24,24,0,0,0-24-24h-59.2A27.2,27.2,0,0,0,966.357,96.711Z" style="fill:#06f"/><path d="M24.158,24.8V156a24,24,0,0,0,24,24h32a4.8,4.8,0,0,0,4.8-4.8V154.4a4.8,4.8,0,0,0-4.8-4.8h-17.6a8,8,0,0,1-8-8V24.8a4.8,4.8,0,0,0-4.8-4.8h-20.8A4.8,4.8,0,0,0,24.158,24.8Z" style="fill:#06f"/><path d="M161.358,69.6h-14.4a48,48,0,0,0-48,48V132a48,48,0,0,0,48,48h14.4a48,48,0,0,0,48-48V117.6A48,48,0,0,0,161.358,69.6Zm-1.6,80h-11.2a19.2,19.2,0,0,1-19.2-19.2V119.2a19.2,19.2,0,0,1,19.2-19.2h11.2a19.2,19.2,0,0,1,19.2,19.2v11.2A19.2,19.2,0,0,1,159.758,149.6Z" style="fill:#06f"/><path d="M253.758,100v41.6a8,8,0,0,0,8,8h17.6a4.8,4.8,0,0,1,4.8,4.8v20.8a4.8,4.8,0,0,1-4.8,4.8h-32a24,24,0,0,1-24-24V47.2a4.8,4.8,0,0,1,4.8-4.8h20.8a4.8,4.8,0,0,1,4.8,4.8V69.6h25.6a4.8,4.8,0,0,1,4.8,4.8V95.2a4.8,4.8,0,0,1-4.8,4.8Z" style="fill:#06f"/><path d="M408.558,72.8V132a48,48,0,0,1-48,48h-14.4a48,48,0,0,1-48-48V72.8a4.8,4.8,0,0,1,4.8-4.8h20.8a4.8,4.8,0,0,1,4.8,4.8v57.6a19.2,19.2,0,0,0,19.2,19.2h11.2a19.2,19.2,0,0,0,19.2-19.2V72.8a4.8,4.8,0,0,1,4.8-4.8h20.8A4.8,4.8,0,0,1,408.558,72.8Z" style="fill:#06f"/><path d="M502.558,98.4h0a6.4,6.4,0,0,0-6.4-6.4H461.006a8.048,8.048,0,0,0-8.048,8.048v.007a8.049,8.049,0,0,0,6.17,7.826L512.106,120.6a27.2,27.2,0,0,1,20.852,26.449V152.8a27.2,27.2,0,0,1-27.2,27.2h-59.2a24,24,0,0,1-24-24v-4.8a4.8,4.8,0,0,1,4.8-4.8h20.8a4.8,4.8,0,0,1,4.8,4.8h0a6.4,6.4,0,0,0,6.4,6.4H494.51a8.048,8.048,0,0,0,8.048-8.048v-.007a8.049,8.049,0,0,0-6.17-7.826L443.41,129.005a27.2,27.2,0,0,1-20.852-26.449V96.8a27.2,27.2,0,0,1,27.2-27.2h59.2a24,24,0,0,1,24,24v4.8a4.8,4.8,0,0,1-4.8,4.8h-20.8A4.8,4.8,0,0,1,502.558,98.4Z" style="fill:#06f"/><rect x="1100.442" y="149.6" width="30.4" height="30.4" rx="4.8" style="fill:#06f"/></svg>