<svg xmlns="http://www.w3.org/2000/svg" viewBox="0 0 198 117"><title>Lotus Docs</title><path d="M18 18h27v9h-27zM18 36h27v9h-27zM18 54h27v9h-27zM18 72h27v9h-27zM18 90h27v9h-27zM54 72h27v9h-27zM54 90h27v9h-27zM99 18h27v9h-27zM99 36h27v9h-27zM99 54h27v9h-27zM99 72h27v9h-27zM99 90h27v9h-27zM153 18h-18v9h30.963a53.858 53.858 0 0 0-12.963-9zM144 36v9h33.716a43.072 43.072 0 0 0-4.3-9zM179.728 54h-26.728v9h26.728a41.282 41.282 0 0 0 0-9zM144 72v9h29.416a43.072 43.072 0 0 0 4.3-9zM135 90v9h18a53.858 53.858 0 0 0 12.963-9z"/><path fill="#06f" d="M18 18h27v9h-27zM18 36h27v9h-27zM18 54h27v9h-27zM18 72h27v9h-27zM18 90h27v9h-27zM54 72h27v9h-27zM54 90h27v9h-27zM99 18h27v9h-27zM99 36h27v9h-27zM99 54h27v9h-27zM99 72h27v9h-27zM99 90h27v9h-27zM153 18h-18v9h30.963a53.858 53.858 0 0 0-12.963-9zM144 36v9h33.716a43.072 43.072 0 0 0-4.3-9zM179.728 54h-26.728v9h26.728a41.282 41.282 0 0 0 0-9zM144 72v9h29.416a43.072 43.072 0 0 0 4.3-9zM135 90v9h18a53.858 53.858 0 0 0 12.963-9z"/></svg>