<svg xmlns="http://www.w3.org/2000/svg" viewBox="0 0 200 100"><title>LotusDocs</title><rect x="19" y="9.5" width="27" height="9" rx="3"/><rect x="19" y="27.5" width="27" height="9" rx="3"/><rect x="19" y="45.5" width="27" height="9" rx="3"/><rect x="19" y="63.5" width="27" height="9" rx="3"/><rect x="19" y="81.5" width="27" height="9" rx="3"/><rect x="55" y="63.5" width="27" height="9" rx="3"/><rect x="55" y="81.5" width="27" height="9" rx="3"/><rect x="100" y="9.5" width="27" height="9" rx="3"/><rect x="100" y="27.5" width="27" height="9" rx="3"/><rect x="100" y="45.5" width="27" height="9" rx="3"/><rect x="100" y="63.5" width="27" height="9" rx="3"/><rect x="100" y="81.5" width="27" height="9" rx="3"/><rect x="136" y="9.5" width="27" height="9" rx="3"/><rect x="145" y="27.5" width="27" height="9" rx="3"/><rect x="154" y="45.5" width="27" height="9" rx="3"/><rect x="145" y="63.5" width="27" height="9" rx="3"/><rect x="136" y="81.5" width="27" height="9" rx="3"/></svg>